<svg width="80" height="20" viewBox="0 0 80 20" fill="none" xmlns="http://www.w3.org/2000/svg">
<path d="M33.0787 2.83305C31.6003 2.83305 30.5253 3.19145 29.612 4.01823L27.9992 5.45128C27.8648 5.56182 27.5959 5.64444 27.4081 5.47863C27.2198 5.31339 27.1931 5.09288 27.3543 4.87236L28.2142 3.54929C28.3487 3.35613 28.2415 3.10826 27.9992 3.10826H25.9298C25.6882 3.10826 25.4998 3.30142 25.4998 3.54929V16.4496C25.4998 16.6974 25.6882 16.8906 25.9298 16.8906H28.0798C28.3215 16.8906 28.5098 16.6974 28.5098 16.4496V9.17265C28.5098 5.83761 31.2242 5.31396 32.2453 5.31396C34.422 5.31396 35.2014 6.91282 35.2014 8.12536V16.4496C35.2014 16.6974 35.3898 16.8906 35.6314 16.8906H37.7814C38.0231 16.8906 38.2114 16.6974 38.2114 16.4496V7.84957C38.2114 4.76239 36.2492 2.83305 33.0781 2.83305H33.0787ZM46.9719 2.77778C42.8064 2.77778 40.1458 5.39658 40.1458 8.95214V10.9094C40.1458 14.6581 42.8064 17.2217 46.9719 17.2217C50.6535 17.2217 53.2335 15.2644 53.5024 12.6182C53.5296 12.3425 53.3413 12.1499 53.0724 12.1499H50.9763C50.788 12.1499 50.6269 12.2604 50.573 12.453C50.3041 13.335 49.0413 14.6581 46.9719 14.6581C44.9025 14.6581 42.9675 13.1145 42.9941 10.9094L43.0214 8.45641C43.048 6.60969 44.9297 5.34188 46.9719 5.34188C48.8263 5.34188 50.6269 6.41709 50.8146 8.1812C50.8221 8.27987 50.7939 8.37791 50.7354 8.45662C50.6769 8.53532 50.5922 8.5892 50.4974 8.60798L44.4719 9.80741C44.2302 9.86268 44.0419 10.0832 44.0419 10.3584V10.3858C44.0419 10.6336 44.2836 10.8541 44.633 10.8541H53.2869C53.4009 10.8541 53.5103 10.8077 53.5909 10.725C53.6715 10.6422 53.7169 10.5301 53.7169 10.4131V8.67692C53.7169 5.39715 50.9485 2.77835 46.9713 2.77835L46.9719 2.77778ZM61.9674 2.77778C58.6079 2.77778 55.7057 4.78974 55.7057 7.4359C55.7057 7.65641 55.8941 7.82165 56.1357 7.82165H58.3124C58.5274 7.82165 58.6885 7.65641 58.7157 7.4359C58.9307 6.22336 60.3551 5.34131 61.8868 5.34131C63.714 5.34131 64.9507 6.49915 64.9507 8.48376V10.8821C64.9507 13.335 63.1768 14.5755 60.9729 14.5755C59.2529 14.5755 58.2585 13.914 58.2585 12.8387C58.2585 11.9014 58.7424 11.102 60.7307 10.6336L63.6062 9.83419C63.9018 9.75157 64.0096 9.50313 63.9557 9.22792C63.929 9.00741 63.6873 8.89687 63.4718 8.89687H60.489C57.9629 8.89687 55.4096 10.5504 55.4096 12.9761V13.3618C55.4096 15.8427 57.694 17.1379 60.3007 17.1379C61.9668 17.1379 63.3912 16.4764 64.2779 15.7048L65.5951 14.547C65.8101 14.3538 66.0251 14.3538 66.2129 14.547C66.374 14.7123 66.3201 14.9607 66.1856 15.1533L65.3795 16.449C65.2451 16.6422 65.3523 16.89 65.5945 16.89H67.5295C67.7712 16.89 67.9595 16.6969 67.9595 16.449V8.09687C67.9595 4.89972 65.729 2.77721 61.9662 2.77721L61.9674 2.77778ZM79.5694 3.10883H76.5595C75.5117 3.10883 74.49 3.77037 73.7645 4.40456L72.5823 5.45185C72.4478 5.56239 72.2056 5.64501 72.0445 5.50712C71.8562 5.36923 71.7756 5.09345 71.9373 4.87293L72.7973 3.54986C72.9317 3.3567 72.8245 3.10883 72.5823 3.10883H70.5667C70.3251 3.10883 70.1367 3.30199 70.1367 3.54986V16.4501C70.1367 16.698 70.3251 16.8912 70.5667 16.8912H72.7706C73.0123 16.8912 73.2006 16.698 73.2006 16.4501V9.83476C73.2006 6.99544 74.3295 5.72764 76.775 5.72764H79.57C79.8117 5.72764 80 5.53447 80 5.28661V3.54986C80 3.30199 79.8117 3.10883 79.57 3.10883H79.5694ZM17.4227 0C16.7004 0 16.0299 0.384046 15.6516 1.01538L11.5755 7.22222C11.5439 7.27081 11.522 7.32531 11.5109 7.3826C11.4999 7.43989 11.5 7.49885 11.5112 7.55611C11.5224 7.61336 11.5445 7.6678 11.5762 7.71629C11.6079 7.76479 11.6486 7.8064 11.696 7.83875C11.7747 7.8925 11.8684 7.91837 11.9628 7.9124C12.0572 7.90643 12.1471 7.86896 12.2188 7.8057L16.231 4.23647C16.2977 4.17493 16.4004 4.1812 16.4604 4.24957C16.4877 4.28091 16.5021 4.32137 16.5021 4.36296V15.5379C16.5021 15.5598 16.4979 15.5815 16.4897 15.6017C16.4815 15.6219 16.4695 15.6403 16.4544 15.6557C16.4393 15.6712 16.4213 15.6834 16.4016 15.6918C16.3818 15.7001 16.3607 15.7043 16.3393 15.7043C16.291 15.7043 16.2454 15.6826 16.2149 15.6444L4.08664 0.754416C3.8915 0.518268 3.64862 0.328478 3.37483 0.198208C3.10104 0.0679383 2.80291 0.00030563 2.50109 0H2.07721C0.929994 0 0 0.953846 0 2.13048V17.8695C0 19.0462 0.929994 20 2.07721 20C2.79942 20 3.46998 19.616 3.84831 18.9846L7.92439 12.7778C7.95597 12.7292 7.9779 12.6747 7.98893 12.6174C7.99996 12.5601 7.99987 12.5011 7.98868 12.4439C7.97748 12.3866 7.9554 12.3322 7.92368 12.2837C7.89196 12.2352 7.85124 12.1936 7.80383 12.1613C7.72512 12.1075 7.63142 12.0816 7.53703 12.0876C7.44264 12.0936 7.35275 12.131 7.28106 12.1943L3.26887 15.7635C3.2022 15.8251 3.09942 15.8188 3.03942 15.7504C3.0122 15.7191 2.99776 15.6786 2.99831 15.637V4.45926C2.99831 4.43736 3.00253 4.41568 3.01071 4.39546C3.0189 4.37523 3.0309 4.35687 3.04602 4.34141C3.06114 4.32595 3.07909 4.31371 3.09884 4.30538C3.11859 4.29705 3.13974 4.2928 3.16109 4.29288C3.20887 4.29288 3.25498 4.31453 3.28553 4.35271L15.4121 19.2456C15.6073 19.4817 15.8501 19.6715 16.1239 19.8018C16.3977 19.9321 16.6958 19.9997 16.9977 20H17.4215C18.5688 20.0006 19.4993 19.0473 19.5004 17.8707V2.13048C19.5004 0.953846 18.5704 0 17.4232 0H17.4227Z" fill="white"/>
</svg>
